<?xml version="1.0" encoding="utf-8"?>
<!-- Generator: Adobe Illustrator 16.0.0, SVG Export Plug-In . SVG Version: 6.00 Build 0)  -->
<!DOCTYPE svg PUBLIC "-//W3C//DTD SVG 1.1//EN" "http://www.w3.org/Graphics/SVG/1.1/DTD/svg11.dtd">
<svg version="1.1" id="圖層_1" xmlns="http://www.w3.org/2000/svg" xmlns:xlink="http://www.w3.org/1999/xlink" x="0px" y="0px"
	 width="283.46px" height="283.46px" viewBox="0 0 283.46 283.46" enable-background="new 0 0 283.46 283.46" xml:space="preserve">
<g>
	<path fill-rule="evenodd" clip-rule="evenodd" fill="#FFFFFF" d="M60.485,126.989c2.487-3.058,4.789-5.896,7.099-8.728
		c10.883-13.334,21.771-26.665,32.654-39.998c14.176-17.367,28.356-34.731,42.508-52.119c0.714-0.878,1.456-1.231,2.58-1.222
		c5.65,0.048,11.301,0.022,16.953,0.022c0.432,0,0.864,0,1.463,0c0,15.136,0,30.148,0,45.16c0.166,0.112,0.331,0.224,0.498,0.336
		c0.211-0.366,0.371-0.776,0.641-1.093c12.358-14.461,24.735-28.907,37.071-43.386c0.807-0.947,1.641-1.284,2.844-1.258
		c5.604,0.119,11.21,0.166,16.814,0.242c0.347,0.005,0.693,0.039,1.18,0.068c0.027,0.505,0.074,0.97,0.074,1.435
		c0.003,25.518,0.003,51.035,0.003,76.553c-0.001,0.309-0.06,0.627-0.006,0.926c0.702,3.879-1.853,6.277-3.996,8.878
		c-6.871,8.339-13.729,16.688-20.594,25.034c-7.256,8.819-14.515,17.639-21.769,26.461c-2.044,2.486-4.053,5.005-6.134,7.46
		c-0.563,0.665-0.547,1.114-0.102,1.839c3.305,5.369,4.926,11.241,4.933,17.531c0.017,13.897-8.366,26.35-21.278,31.539
		c-20.636,8.294-44.148-4.688-46.989-27.637c-2.112-17.068,9.573-33.365,26.484-37.047c5.85-1.274,11.628-1.184,17.347,0.629
		c0.815,0.259,1.301,0.162,1.88-0.545c15.551-18.981,31.126-37.941,46.72-56.888c0.657-0.799,0.943-1.582,0.941-2.622
		c-0.033-11.523-0.02-23.046-0.022-34.568c0-0.371-0.034-0.743-0.071-1.458c-2.088,2.448-3.957,4.648-5.837,6.84
		c-6.518,7.602-13.046,15.195-19.558,22.802c-4.189,4.892-8.382,9.78-12.516,14.719c-0.779,0.93-1.563,1.332-2.792,1.317
		c-5.519-0.064-11.037-0.027-16.557-0.027c-0.522,0-1.045,0-1.699,0c0-14.785,0-29.461,0-44.136c-0.1-0.048-0.199-0.097-0.298-0.145
		c-1.156,1.396-2.32,2.784-3.466,4.187c-6.642,8.127-13.284,16.254-19.918,24.388c-6.579,8.064-13.148,16.138-19.722,24.206
		c-2.617,3.213-5.215,6.441-7.875,9.618c-0.342,0.407-1.01,0.765-1.529,0.768c-8.918,0.046-17.836,0.033-26.754,0.029
		C61.394,127.101,61.098,127.047,60.485,126.989z M150.485,191.329c0.043-6.017-4.629-10.997-10.349-11.031
		c-5.949-0.036-10.869,4.798-10.959,10.768c-0.088,5.809,4.989,11.015,10.761,11.037
		C145.591,202.123,150.444,197.166,150.485,191.329z"/>
	<path fill-rule="evenodd" clip-rule="evenodd" fill="#FFFFFF" d="M163.806,127.924c-2.383,2.901-4.671,5.69-6.96,8.479
		c-2.549,3.101-5.076,6.219-7.674,9.278c-0.313,0.368-1.036,0.654-1.509,0.581c-12.517-1.917-23.986,0.67-34.249,8.102
		c-9.58,6.936-15.78,16.298-17.899,27.883c-3.145,17.194,1.963,31.853,15.108,43.483c6.513,5.762,14.206,9.096,22.831,10.438
		c24.17,3.761,47.06-13.497,51.006-37.27c1.346-8.104,0.626-15.988-2.194-23.701c-0.168-0.458-0.052-1.241,0.25-1.615
		c4.524-5.593,9.101-11.145,13.668-16.703c1.131-1.376,1.381-1.359,2.234,0.116c4,6.903,6.898,14.245,8.2,22.117
		c3.203,19.363-0.851,37.077-12.669,52.824c-7.357,9.805-16.881,16.91-28.195,21.632c-5.857,2.444-11.914,4.271-18.214,4.873
		c-4.398,0.42-8.897,0.427-13.297,0.026c-4.636-0.423-9.342-1.114-13.77-2.489c-4.658-1.445-9.207-3.504-13.479-5.878
		c-16.534-9.187-27.821-22.888-32.478-41.226c-6.729-26.498,0.231-49.387,20.219-68.077c8.965-8.384,19.788-13.407,31.769-15.936
		c6.207-1.31,12.515-1.481,18.805-1.089C151.596,124.163,157.718,125.549,163.806,127.924z"/>
</g>
</svg>
